<svg width="44" height="26" viewBox="0 0 44 26" fill="none" xmlns="http://www.w3.org/2000/svg">
<g clip-path="url(#clip0_41_349)">
<path d="M12.3982 9.43731C12.3982 9.97807 12.4538 10.4075 12.565 10.727C12.6762 11.048 12.8342 11.3936 13.0391 11.7652C13.1064 11.8838 13.1415 11.9922 13.1415 12.0934C13.1415 12.2452 13.0479 12.3884 12.8591 12.5243L11.9374 13.1316C11.8013 13.2154 11.6725 13.2588 11.554 13.2588C11.4004 13.2588 11.2556 13.1923 11.1195 13.0564C10.9147 12.8539 10.7391 12.6298 10.5942 12.3855C10.4494 12.1411 10.3001 11.8592 10.1465 11.5382C9.00237 12.8713 7.56853 13.5379 5.84499 13.5379C4.61598 13.5379 3.64301 13.1923 2.92609 12.4997C2.20917 11.8086 1.85071 10.8803 1.85071 9.71636C1.85071 8.48591 2.29403 7.49403 3.18213 6.74361C4.06878 5.9932 5.26413 5.61726 6.76674 5.61726C7.26127 5.61726 7.77775 5.65486 8.31617 5.73149C8.8546 5.80812 9.4135 5.91367 9.9929 6.04814V4.98541C9.9929 3.88943 9.76172 3.11732 9.30231 2.67054C8.84143 2.22376 8.04696 1.99965 6.92037 1.99965C6.40828 1.99965 5.88303 2.06327 5.34607 2.18906C4.80911 2.3163 4.28385 2.47968 3.77177 2.68211C3.53328 2.78332 3.3621 2.84694 3.25968 2.87152C3.15726 2.8961 3.08118 2.90911 3.02997 2.90911C2.82514 2.90911 2.72272 2.75729 2.72272 2.45366V1.74517C2.72272 1.50949 2.75637 1.34032 2.82514 1.23911C2.89244 1.1379 3.02997 1.03668 3.23481 0.935472C3.74689 0.682441 4.3614 0.464112 5.07832 0.277592C5.79524 0.092518 6.55459 -0.00146484 7.35638 -0.00146484C9.09747 -0.00146484 10.3733 0.390372 11.1839 1.17549C11.9944 1.95916 12.3997 3.14479 12.3997 4.73093V9.43731H12.3982ZM6.45803 11.6394C6.93646 11.6394 7.43977 11.5512 7.96942 11.3734C8.49906 11.197 8.95848 10.889 9.35205 10.4494C9.59054 10.1805 9.75733 9.87107 9.85097 9.52551C9.94461 9.17994 9.99143 8.76208 9.99143 8.27337V7.66609C9.5642 7.56488 9.11649 7.48536 8.64684 7.42607C8.17718 7.36679 7.72069 7.33787 7.27737 7.33787C6.3044 7.33787 5.5787 7.53162 5.10027 7.91912C4.62183 8.30807 4.38334 8.86473 4.38334 9.58913C4.38334 10.2644 4.56331 10.7748 4.9203 11.1203C5.27877 11.4659 5.79085 11.6394 6.45657 11.6394H6.45803ZM18.2112 13.2082C17.9551 13.2082 17.7664 13.1619 17.6479 13.0694C17.5279 12.9768 17.4255 12.7874 17.3406 12.4997L13.9096 1.31574C13.8233 1.02946 13.7823 0.83426 13.7823 0.734493C13.7823 0.498813 13.9009 0.38025 14.1408 0.38025H15.5746C15.8468 0.38025 16.0399 0.426519 16.1511 0.519056C16.2623 0.611593 16.3603 0.80245 16.4452 1.08874L18.9032 10.6533L21.1813 1.08874C21.2486 0.80245 21.3437 0.613039 21.4636 0.519056C21.5822 0.426519 21.7797 0.38025 22.0518 0.38025H23.2296C23.5032 0.38025 23.6993 0.426519 23.8193 0.519056C23.9378 0.611593 24.0329 0.80245 24.1002 1.08874L26.4046 10.7805L28.9387 1.08729C29.0235 0.801004 29.1215 0.611593 29.2327 0.51761C29.3439 0.425073 29.5356 0.378804 29.8092 0.378804H31.1655C31.404 0.378804 31.524 0.497367 31.524 0.733048C31.524 0.801004 31.5152 0.876191 31.4991 0.960052C31.4815 1.04536 31.4479 1.16248 31.3967 1.3143L27.8633 12.4983C27.777 12.786 27.6745 12.9754 27.556 13.0679C27.436 13.1605 27.2488 13.2067 26.9927 13.2067H25.7374C25.4638 13.2067 25.2677 13.1561 25.1478 13.0549C25.0278 12.9537 24.9341 12.76 24.8668 12.4722L22.5873 3.1607L20.3341 12.4722C20.2654 12.76 20.1717 12.9537 20.0532 13.0549C19.9332 13.1561 19.7372 13.2067 19.4636 13.2067H18.2082L18.2112 13.2082ZM37.0048 13.5885C36.2366 13.5885 35.4861 13.5046 34.7516 13.3354C34.0171 13.1677 33.4538 12.9725 33.0617 12.7527C32.8232 12.6183 32.6725 12.4838 32.614 12.3479C32.554 12.2134 32.5247 12.0789 32.5247 11.943V11.2085C32.5247 10.9049 32.6359 10.7531 32.8583 10.7531C32.9432 10.7531 33.0324 10.7704 33.1275 10.8037C33.2212 10.8384 33.3455 10.889 33.4992 10.9555C33.9937 11.1753 34.5321 11.3444 35.1115 11.4616C35.6909 11.5801 36.2718 11.6394 36.8526 11.6394C37.7744 11.6394 38.4869 11.4789 38.9902 11.1579C39.4935 10.8384 39.7452 10.3815 39.7452 9.79155C39.7452 9.3867 39.6135 9.04981 39.3487 8.77943C39.0838 8.50905 38.5937 8.25601 37.8768 8.02034L35.7509 7.36245C34.6755 7.02556 33.8942 6.53685 33.4084 5.89488C32.9227 5.25435 32.6784 4.55454 32.6784 3.79544C32.6784 3.18817 32.81 2.65319 33.0749 2.18906C33.3397 1.72493 33.6894 1.32875 34.1239 0.999091C34.5584 0.670874 35.0676 0.420735 35.647 0.253012C36.2264 0.0852886 36.8409 -1.89535e-05 37.4905 -1.89535e-05C37.8139 -1.89535e-05 38.1431 0.0216694 38.4767 0.0636002C38.8102 0.105531 39.1248 0.160475 39.4233 0.228432C39.7218 0.296389 39.9997 0.371575 40.2558 0.455437C40.5118 0.540744 40.7167 0.624606 40.8703 0.708467C41.0751 0.82703 41.22 0.945593 41.3063 1.06271C41.3912 1.18127 41.4336 1.34032 41.4336 1.54419V2.22665C41.4336 2.53029 41.3224 2.68211 41.1 2.68211C40.98 2.68211 40.7927 2.62283 40.5367 2.50426C39.6998 2.13412 38.7605 1.9476 37.7202 1.9476C36.8833 1.9476 36.2352 2.08351 35.7743 2.35244C35.3134 2.62283 35.0837 3.05226 35.0837 3.64363C35.0837 4.04847 35.2286 4.3897 35.5182 4.66876C35.8079 4.94637 36.3464 5.21242 37.1321 5.46545L39.2053 6.12333C40.2631 6.46166 41.0195 6.92435 41.4716 7.51572C41.9237 8.10564 42.1505 8.78087 42.1505 9.53997C42.1505 10.1646 42.0232 10.7256 41.7672 11.223C41.5111 11.7204 41.1571 12.1469 40.705 12.5011C40.2529 12.8554 39.71 13.1258 39.0794 13.3108C38.4474 13.4959 37.7568 13.5885 37.0062 13.5885H37.0048ZM39.0721 19.5065C33.6718 21.7708 27.8018 22.8653 22.4629 22.8653C14.5475 22.8653 6.88526 20.7196 0.689 17.1555C0.146188 16.8432 -0.254703 17.394 0.195934 17.796C5.94009 22.9217 13.5292 26 21.9582 26C27.9715 26 34.9564 24.1319 39.773 20.6184C40.5704 20.0357 39.8871 19.1653 39.0721 19.5065ZM40.5089 23.7849C40.3333 24.2186 40.7108 24.3936 41.1088 24.0654C43.6926 21.9284 44.3613 17.4519 43.8316 16.8056C43.3064 16.165 38.7883 15.6127 36.0303 17.5256C35.606 17.8191 35.6792 18.2254 36.1503 18.1705C37.7041 17.9869 41.16 17.5762 41.776 18.3556C42.3934 19.1363 41.0912 22.3491 40.5089 23.7834V23.7849Z" fill="white"/>
</g>
<defs>
<clipPath id="clip0_41_349">
<rect width="44" height="26" fill="white"/>
</clipPath>
</defs>
</svg>
